# xmcd
#
# Track frame offsets:
#	150
#	25196
#	45321
#	69310
#	103405
#	118640
#	138272
#	157376
#	181339
#	198684
#	225527
#	240312
#	253007
#	274947
#
# Disc length: 3994 seconds
#
# Revision: 0
# Processed by: cddbd v1.4PL0 Copyright (c) Steve Scherf et al.
# Submitted via: audiograbber 1.81.02
#
DISCID=c50f980e
DTITLE=v/a - tonal destruction [cd 002]
DYEAR=2001
DGENRE=Electronic
TTITLE0=Meson - Collision
TTITLE1=Conure - Avoiding The Memory
TTITLE2=A.C. Dryk - Degauge
TTITLE3=Wilt - Cast Away In The Abyss
TTITLE4=Aural Blasphemy - Awaken
TTITLE5=Sub Skan - Would You Mind Stop Shredding My Physical Output v1.0
TTITLE6=Absence Insolution - Fifty-Four
TTITLE7=Lament Configuration - Mariachi Static
TTITLE8=XCDS - Justice
TTITLE9=Szkieve - Passe-Montagne Randonnee
TTITLE10=Tape - Frame Error
TTITLE11=O-Drik - C'Est Le Dédut D'Une Vive Controverse
TTITLE12=Arlsx - Self
TTITLE13=Sickrobot - EI (Outtatime Mix)
EXTD=
EXTT0=
EXTT1=
EXTT2=
EXTT3=
EXTT4=
EXTT5=
EXTT6=
EXTT7=
EXTT8=
EXTT9=
EXTT10=
EXTT11=
EXTT12=
EXTT13=
PLAYORDER=
